<svg width="20" height="21" viewBox="0 0 20 21" fill="none" xmlns="http://www.w3.org/2000/svg">
<path d="M17.0621 18.7183C15.1077 20.6726 10.1028 18.8363 5.88327 14.6167C1.66372 10.3972 -0.172609 5.39227 1.7817 3.43795L3.06847 2.15118C3.9568 1.26286 5.42054 1.28634 6.33784 2.20363L8.33092 4.19672C9.24822 5.11401 9.2717 6.57776 8.38337 7.46609L8.10699 7.74247C7.62737 8.22209 7.58045 8.99581 8.0261 9.53587C8.45597 10.0568 8.9194 10.5756 9.42188 11.0781C9.92435 11.5806 10.4432 12.044 10.9641 12.4739C11.5042 12.9196 12.2779 12.8726 12.7575 12.393L13.0339 12.1166C13.9222 11.2283 15.386 11.2518 16.3033 12.1691L18.2964 14.1622C19.2137 15.0795 19.2371 16.5432 18.3488 17.4315L17.0621 18.7183Z" stroke="#4D4D4D" stroke-width="1.5"/>
</svg>
