<svg width="24" height="25" viewBox="0 0 24 25" fill="none" xmlns="http://www.w3.org/2000/svg">
<path d="M14 2.75C15.3876 2.75 16.4734 2.74915 17.3447 2.82031C18.2249 2.89222 18.9522 3.04162 19.6104 3.37695C20.6923 3.92822 21.5718 4.80773 22.123 5.88965C22.4584 6.54778 22.6078 7.27513 22.6797 8.15527C22.7509 9.0266 22.75 10.1124 22.75 11.5V13.5C22.75 14.8876 22.7509 15.9734 22.6797 16.8447C22.6078 17.7249 22.4584 18.4522 22.123 19.1104C21.5718 20.1923 20.6923 21.0718 19.6104 21.623C18.9522 21.9584 18.2249 22.1078 17.3447 22.1797C16.4734 22.2509 15.3876 22.25 14 22.25H10C8.61244 22.25 7.5266 22.2509 6.65527 22.1797C5.77513 22.1078 5.04778 21.9584 4.38965 21.623C3.30774 21.0718 2.42822 20.1923 1.87695 19.1104C1.54162 18.4522 1.39222 17.7249 1.32031 16.8447C1.24915 15.9734 1.25 14.8876 1.25 13.5V11.5C1.25 10.1124 1.24915 9.0266 1.32031 8.15527C1.39222 7.27513 1.54162 6.54778 1.87695 5.88965C2.42822 4.80773 3.30773 3.92822 4.38965 3.37695C5.04778 3.04162 5.77513 2.89222 6.65527 2.82031C7.5266 2.74915 8.61244 2.75 10 2.75H14ZM10 4.25C8.58766 4.25 7.57344 4.25041 6.77734 4.31543C5.98996 4.37976 5.48174 4.50326 5.07031 4.71289C4.27066 5.12035 3.62035 5.77066 3.21289 6.57031C3.00326 6.98174 2.87976 7.48996 2.81543 8.27734C2.75041 9.07344 2.75 10.0877 2.75 11.5V13.5C2.75 14.9123 2.75041 15.9266 2.81543 16.7227C2.87976 17.51 3.00326 18.0183 3.21289 18.4297C3.62035 19.2293 4.27066 19.8797 5.07031 20.2871C5.48174 20.4967 5.98996 20.6202 6.77734 20.6846C7.57344 20.7496 8.58766 20.75 10 20.75H14C15.4123 20.75 16.4266 20.7496 17.2227 20.6846C18.01 20.6202 18.5183 20.4967 18.9297 20.2871C19.7293 19.8797 20.3797 19.2293 20.7871 18.4297C20.9967 18.0183 21.1202 17.51 21.1846 16.7227C21.2496 15.9266 21.25 14.9123 21.25 13.5V11.5C21.25 10.0877 21.2496 9.07344 21.1846 8.27734C21.1202 7.48996 20.9967 6.98174 20.7871 6.57031C20.3797 5.77066 19.7293 5.12035 18.9297 4.71289C18.5183 4.50326 18.01 4.37976 17.2227 4.31543C16.4266 4.25041 15.4123 4.25 14 4.25H10ZM17.584 7.87598C17.9286 7.64621 18.3943 7.73934 18.624 8.08398C18.8538 8.42863 18.7607 8.89426 18.416 9.12402L17.416 9.79102C15.8471 10.837 14.9344 11.4545 13.9473 11.752C12.6773 12.1346 11.3227 12.1346 10.0527 11.752C9.06563 11.4545 8.15291 10.837 6.58398 9.79102L5.58398 9.12402C5.23934 8.89426 5.14621 8.42863 5.37598 8.08398C5.60574 7.73934 6.07137 7.64621 6.41602 7.87598L7.41602 8.54297C9.06605 9.64299 9.76331 10.0978 10.4854 10.3154C11.4731 10.613 12.5269 10.613 13.5146 10.3154C14.2367 10.0978 14.934 9.64299 16.584 8.54297L17.584 7.87598Z" fill="#4D4D4D"/>
</svg>
