<svg width="30" height="30" viewBox="0 0 30 30" fill="none" xmlns="http://www.w3.org/2000/svg">
<path fill-rule="evenodd" clip-rule="evenodd" d="M22.8983 18.0413C24.457 16.0317 25.1916 13.5038 24.9527 10.9718C24.7137 8.43987 23.5191 6.09404 21.612 4.41158C19.7048 2.72911 17.2283 1.83641 14.6863 1.91507C12.1443 1.99373 9.72777 3.03785 7.92828 4.83501C6.12723 6.63342 5.07969 9.05091 4.99915 11.5948C4.91861 14.1388 5.81113 16.6177 7.49482 18.5264C9.17851 20.4351 11.5267 21.6301 14.0607 21.8676C16.5948 22.1052 19.1242 21.3675 21.1333 19.805L21.187 19.8613L26.4895 25.165C26.6057 25.2811 26.7435 25.3733 26.8953 25.4361C27.047 25.499 27.2097 25.5313 27.3739 25.5313C27.5381 25.5313 27.7008 25.499 27.8525 25.4361C28.0043 25.3733 28.1421 25.2811 28.2583 25.165C28.3744 25.0489 28.4665 24.911 28.5294 24.7593C28.5923 24.6075 28.6246 24.4449 28.6246 24.2806C28.6246 24.1164 28.5923 23.9538 28.5294 23.802C28.4665 23.6503 28.3744 23.5124 28.2583 23.3963L22.9545 18.0938L22.8983 18.0413ZM20.3033 6.60376C21.009 7.29811 21.5703 8.12532 21.9548 9.03768C22.3392 9.95004 22.5393 10.9295 22.5433 11.9195C22.5473 12.9096 22.3553 13.8906 21.9783 14.8061C21.6013 15.7215 21.0467 16.5533 20.3466 17.2534C19.6466 17.9534 18.8148 18.508 17.8994 18.885C16.9839 19.262 16.0029 19.454 15.0128 19.45C14.0228 19.446 13.0433 19.246 12.131 18.8615C11.2186 18.4771 10.3914 17.9158 9.69703 17.21C8.30943 15.7996 7.53535 13.8981 7.54341 11.9195C7.55146 9.94101 8.341 8.04581 9.74004 6.64677C11.1391 5.24773 13.0343 4.45819 15.0128 4.45013C16.9913 4.44208 18.8929 5.21616 20.3033 6.60376Z" fill="#373331"/>
</svg>
