<svg width="26" height="23" viewBox="0 0 26 23" fill="none" xmlns="http://www.w3.org/2000/svg">
<path d="M12.9924 0.329346C6.30725 0.329346 0.916016 4.64229 0.916016 9.87826C0.916016 13.2769 3.15877 16.2528 6.5229 17.9522L5.38427 22.2048C5.36281 22.2686 5.3595 22.337 5.37474 22.4025C5.38997 22.468 5.42314 22.528 5.47053 22.5757C5.53964 22.6366 5.62855 22.6703 5.72069 22.6706C5.79708 22.6644 5.86956 22.6342 5.92771 22.5843L10.8273 19.2806C11.5505 19.3804 12.2796 19.4322 13.0096 19.4358C19.6861 19.4358 25.086 15.1229 25.086 9.87826C25.086 4.63366 19.6689 0.329346 12.9924 0.329346Z" fill="#392020"/>
<path d="M5.14353 8.36702H3.82375C3.66018 8.37177 3.49862 8.32987 3.35795 8.24625C3.2955 8.20712 3.2418 8.15548 3.20024 8.09462C3.15868 8.03376 3.13014 7.96496 3.11642 7.89255C3.11223 7.84664 3.11223 7.80052 3.11642 7.75461C3.11232 7.66871 3.129 7.58304 3.16504 7.50495C3.20108 7.42687 3.25542 7.35866 3.32345 7.30604C3.47383 7.19713 3.65534 7.1396 3.841 7.1421H7.81758C7.98246 7.1363 8.14512 7.18151 8.28339 7.27151C8.34731 7.30891 8.40214 7.36008 8.44391 7.42124C8.48567 7.4824 8.51334 7.55205 8.52491 7.6252C8.52912 7.66823 8.52912 7.71159 8.52491 7.75461C8.52898 7.84175 8.51234 7.9286 8.47636 8.00806C8.44037 8.08753 8.38607 8.15728 8.31789 8.21171C8.17117 8.32049 7.99141 8.37538 7.80895 8.36702H6.53231V12.9043C6.5375 13.001 6.52254 13.0976 6.48838 13.1882C6.45423 13.2788 6.40163 13.3613 6.33391 13.4305C6.26898 13.4966 6.19092 13.5485 6.10476 13.5826C6.01859 13.6168 5.92622 13.6325 5.8336 13.6289C5.6716 13.6335 5.51304 13.5817 5.38506 13.4823C5.26321 13.3852 5.18051 13.2473 5.15216 13.094C5.14363 13.0311 5.14363 12.9673 5.15216 12.9043L5.14353 8.36702Z" fill="#FEE500"/>
<path d="M8.90346 7.47988C8.94139 7.33793 9.0305 7.21502 9.15361 7.13482C9.28479 7.06047 9.43427 7.0246 9.58491 7.03131H9.91269C10.0725 7.02559 10.2308 7.06441 10.3699 7.14346C10.5172 7.24254 10.6219 7.39341 10.6632 7.56612L12.3884 12.4398C12.4331 12.567 12.4705 12.6966 12.5005 12.8281C12.5034 12.8826 12.5034 12.9373 12.5005 12.9919C12.5034 13.076 12.4879 13.1597 12.4552 13.2371C12.4224 13.3146 12.3731 13.384 12.3107 13.4405C12.2503 13.5024 12.1777 13.5512 12.0976 13.5839C12.0174 13.6165 11.9314 13.6323 11.8449 13.6302C11.7119 13.6434 11.5782 13.6115 11.4656 13.5396C11.3529 13.4676 11.2678 13.3597 11.2238 13.2335L10.8616 12.1725H8.59292L8.23063 13.2335C8.18778 13.3622 8.1016 13.4721 7.98677 13.5445C7.87195 13.6169 7.73559 13.6471 7.60093 13.6302C7.45507 13.634 7.31219 13.5884 7.19551 13.5008C7.08183 13.4104 7.00513 13.2816 6.97986 13.1386C6.97528 13.0898 6.97528 13.0407 6.97986 12.9919C6.96505 12.9063 6.96505 12.8188 6.97986 12.7332C6.97986 12.6383 7.04024 12.5347 7.07475 12.4398L8.90346 7.47988ZM9.76605 8.60994L8.94658 11.1977H10.5769L9.76605 8.60994Z" fill="#FEE500"/>
<path d="M12.7 7.75589C12.6912 7.56231 12.7594 7.37315 12.8897 7.22972C12.956 7.16291 13.0355 7.11069 13.1232 7.07651C13.2108 7.04234 13.3047 7.02688 13.3987 7.03124C13.5603 7.02935 13.7179 7.08094 13.8472 7.17792C13.967 7.2791 14.0466 7.41985 14.0715 7.57468C14.08 7.63476 14.08 7.69581 14.0715 7.75589V12.2932H16.4436C16.6081 12.291 16.7697 12.3358 16.9094 12.4225C16.9723 12.4612 17.0262 12.5128 17.0678 12.5737C17.1094 12.6346 17.1378 12.7036 17.151 12.7762C17.151 12.7762 17.151 12.8625 17.151 12.9056C17.1551 12.9915 17.1384 13.0771 17.1024 13.1551C17.0663 13.2332 17.012 13.3015 16.944 13.3541C16.7936 13.4631 16.6121 13.5205 16.4264 13.518H13.5108C13.3251 13.5299 13.1405 13.4816 12.9846 13.3801C12.8452 13.2758 12.7522 13.1209 12.7258 12.9488C12.7195 12.854 12.7195 12.7588 12.7258 12.664L12.7 7.75589Z" fill="#FEE500"/>
<path d="M17.3062 7.75528C17.301 7.56226 17.3688 7.3744 17.496 7.22911C17.6252 7.11163 17.7911 7.04226 17.9655 7.03283C18.1399 7.02341 18.3123 7.07445 18.4535 7.1773C18.5759 7.2776 18.6585 7.41828 18.6863 7.57406C18.6906 7.63437 18.6906 7.69497 18.6863 7.75528V9.8686L20.8687 7.34978C20.9528 7.26385 21.0421 7.18327 21.1361 7.10833C21.2247 7.05557 21.3263 7.0286 21.4294 7.03062C21.5802 7.0298 21.7276 7.07495 21.8521 7.16003C21.9107 7.19953 21.9608 7.25048 21.9994 7.30977C22.0379 7.36905 22.0641 7.43546 22.0764 7.50509C22.0798 7.52217 22.0798 7.53982 22.0764 7.5569C22.0722 7.57681 22.0722 7.59733 22.0764 7.61724C22.0761 7.708 22.0523 7.79719 22.0074 7.87606C21.9616 7.95956 21.9066 8.03759 21.8435 8.10887L20.4115 9.67886L22.1367 12.3529V12.4391C22.2263 12.5627 22.2962 12.6996 22.3438 12.8446V12.8877C22.3537 12.9876 22.3393 13.0885 22.3018 13.1817C22.2642 13.2748 22.2046 13.3574 22.1281 13.4225C21.9842 13.5313 21.8082 13.589 21.6278 13.5865C21.508 13.5914 21.3889 13.5645 21.2828 13.5087C21.1679 13.4317 21.0732 13.3282 21.0067 13.2069L19.4023 10.6191L18.6346 11.4213V12.8618C18.6398 13.0548 18.572 13.2427 18.4448 13.388C18.3767 13.4546 18.2956 13.5066 18.2066 13.5408C18.1176 13.5749 18.0225 13.5904 17.9273 13.5865C17.7681 13.5898 17.6127 13.5379 17.4873 13.4398C17.3655 13.3427 17.2828 13.2049 17.2544 13.0516C17.2459 12.9887 17.2459 12.9248 17.2544 12.8618L17.3062 7.75528Z" fill="#FEE500"/>
</svg>
