<svg width="34" height="34" viewBox="0 0 34 34" fill="none" xmlns="http://www.w3.org/2000/svg">
<path d="M29.0117 23.9402C29.6014 23.9402 30.0791 24.4189 30.0791 25.0085C30.079 25.5982 29.6014 26.0759 29.0117 26.0759H4.98828C4.39864 26.0759 3.92 25.5982 3.91992 25.0085C3.91992 24.4189 4.39859 23.9402 4.98828 23.9402H29.0117ZM29.0117 15.9324C29.6014 15.9324 30.0791 16.411 30.0791 17.0007C30.0789 17.5903 29.6013 18.0681 29.0117 18.0681H4.98828C4.3987 18.0681 3.92011 17.5903 3.91992 17.0007C3.91992 16.411 4.39859 15.9324 4.98828 15.9324H29.0117ZM29.0117 7.92456C29.6013 7.92459 30.0789 8.40243 30.0791 8.99194C30.0791 9.58162 29.6014 10.0603 29.0117 10.0603H4.9873C4.39777 10.0601 3.91992 9.58152 3.91992 8.99194C3.92011 8.40253 4.39789 7.92475 4.9873 7.92456H29.0117Z" fill="#33363D"/>
</svg>
